<?xml version="1.0" standalone="no"?>
<!DOCTYPE svg PUBLIC "-//W3C//DTD SVG 20010904//EN"
 "http://www.w3.org/TR/2001/REC-SVG-20010904/DTD/svg10.dtd">
<svg version="1.0" xmlns="http://www.w3.org/2000/svg"
 width="1024.000000pt" height="768.000000pt" viewBox="0 0 1024.000000 768.000000"
 preserveAspectRatio="xMidYMid meet">

<g transform="translate(0.000000,768.000000) scale(0.100000,-0.100000)"
fill="#000000" stroke="none">
<path d="M1757 4978 c4 -975 4 -994 24 -1036 38 -79 17 -76 472 -63 521 14
623 30 778 121 69 41 158 122 183 168 86 153 126 274 126 376 0 60 -19 166
-31 181 -12 12 -11 -29 2 -84 13 -56 -5 -221 -28 -265 -35 -63 -76 -127 -80
-123 -4 5 27 66 45 85 6 7 12 24 12 38 0 14 5 23 12 22 9 -2 13 37 14 157 0
88 4 170 8 183 9 26 -19 90 -60 137 l-25 30 28 -52 c15 -29 31 -53 36 -53 4 0
7 -17 7 -38 0 -48 -30 -82 -55 -62 -17 14 -20 56 -5 65 5 3 12 -6 16 -20 3
-14 10 -25 15 -25 15 0 10 57 -6 70 -8 7 -15 21 -15 31 0 11 -4 19 -10 19 -5
0 -10 -7 -10 -16 0 -12 -7 -14 -30 -9 -19 4 -36 2 -45 -5 -12 -10 -15 -9 -15
9 0 27 26 38 51 23 25 -16 29 -15 29 8 0 11 -5 20 -10 20 -6 0 -9 3 -9 8 3 19
-2 23 -16 12 -12 -10 -15 -9 -15 4 0 9 -7 19 -16 23 -9 3 -13 12 -9 22 5 12 3
13 -5 5 -9 -9 -9 -17 -1 -33 12 -21 -2 -31 -14 -11 -3 6 -15 10 -26 10 -25 0
-24 22 2 38 l21 14 -21 14 c-25 18 -64 27 -56 13 4 -5 16 -10 28 -10 17 -1 18
-2 4 -6 -10 -3 -14 -10 -10 -16 3 -7 -3 -4 -15 7 -19 16 -24 17 -39 5 -9 -8
-14 -9 -10 -3 4 7 0 17 -8 24 -12 10 -15 9 -15 -5 0 -13 -5 -16 -22 -11 -13 3
-29 6 -36 6 -7 0 -10 5 -7 10 3 6 18 10 33 10 33 0 64 19 45 27 -7 2 -13 9
-13 14 0 6 5 7 10 4 6 -3 10 1 10 9 0 9 -3 16 -7 17 -56 7 -93 7 -93 -1 0 -6
17 -10 37 -10 32 0 35 -2 23 -14 -20 -19 -60 -30 -60 -17 0 6 -15 11 -32 12
l-33 1 28 11 c27 11 38 29 15 26 -36 -4 -58 2 -58 17 0 14 7 15 40 10 32 -5
40 -3 40 9 0 8 4 15 10 15 5 0 9 -5 7 -12 -3 -17 88 -31 113 -18 30 16 126
136 150 188 24 50 41 137 19 95 -16 -31 -27 -29 -32 5 -2 15 -4 6 -4 -20 0
-40 -7 -55 -37 -93 -21 -25 -40 -45 -44 -45 -4 0 -23 -14 -42 -30 -19 -16 -41
-30 -48 -30 -7 0 -24 -7 -37 -16 -13 -9 -30 -14 -37 -11 -8 3 0 10 17 17 l30
13 -29 6 c-31 6 -48 31 -22 31 9 0 16 -5 16 -10 0 -6 16 0 35 12 38 25 46 43
15 33 -14 -5 -20 -2 -20 10 0 9 4 14 9 11 5 -3 12 1 15 10 9 25 7 34 -8 34 -8
0 -24 12 -35 26 -15 20 -21 22 -21 10 0 -20 -9 -20 -34 -1 -11 8 -28 15 -38
15 -14 0 -18 8 -18 41 0 25 -4 38 -10 34 -6 -4 -9 -25 -6 -51 5 -35 3 -42 -7
-33 -14 13 -16 107 -3 128 5 8 10 24 12 35 1 12 5 37 8 56 5 29 3 27 -12 -14
l-18 -49 -17 26 c-9 15 -17 34 -17 44 1 17 1 17 14 1 16 -22 26 -23 26 -3 0 7
-7 18 -16 23 -14 8 -14 12 -3 30 8 12 19 22 26 22 7 0 13 7 13 15 0 18 -12 19
-28 3 -9 -9 -12 -9 -12 1 0 11 -17 13 -74 9 -59 -4 -73 -2 -69 9 3 7 9 13 14
13 5 0 9 14 9 30 0 25 -4 30 -22 29 -13 0 -18 -3 -11 -5 8 -4 7 -11 -5 -25
-23 -26 -42 -24 -42 6 0 16 6 25 15 25 11 0 15 11 15 40 0 35 3 40 23 40 13 0
32 7 43 15 17 13 17 14 2 15 -10 0 -18 5 -18 10 0 9 20 14 45 11 6 0 0 6 -12
15 -16 12 -57 17 -170 20 -81 2 -193 8 -248 13 -88 7 -72 8 140 11 132 1 244
2 248 1 5 -1 6 3 2 9 -4 6 -157 10 -449 10 l-442 0 3 -992z m811 685 c-10 -2
-26 -2 -35 0 -10 3 -2 5 17 5 19 0 27 -2 18 -5z m162 -13 c0 -8 -3 -25 -6 -38
l-6 -22 -32 24 c-17 13 -40 26 -51 29 -20 5 -20 5 0 6 11 0 29 -6 39 -14 11
-8 26 -15 33 -15 20 0 15 18 -7 25 -28 9 -25 23 5 21 15 0 25 -7 25 -16z
m-541 -118 c1 -65 14 -76 25 -21 3 18 11 29 18 26 7 -2 27 2 43 9 20 8 63 11
125 9 121 -5 193 -19 239 -47 39 -23 91 -74 91 -88 0 -5 8 -13 18 -19 14 -8
15 -12 5 -22 -7 -7 -13 -21 -13 -30 0 -29 -78 -87 -149 -111 -56 -19 -87 -22
-206 -21 -149 0 -185 6 -185 29 0 8 -7 14 -15 14 -14 0 -16 24 -14 188 1 103
5 178 10 167 4 -11 8 -48 8 -83z m566 -242 c3 -5 -1 -10 -10 -10 -9 0 -13 5
-10 10 3 6 8 10 10 10 2 0 7 -4 10 -10z m150 -40 c-10 -17 -25 -11 -25 10 0
12 -7 20 -17 20 -14 0 -15 2 -4 9 16 10 55 -24 46 -39z m-195 0 c0 -5 -4 -10
-9 -10 -5 0 -16 -3 -25 -6 -9 -3 -16 -1 -16 4 0 9 16 17 43 21 4 0 7 -3 7 -9z
m-520 -20 c0 -5 -4 -10 -10 -10 -5 0 -10 5 -10 10 0 6 5 10 10 10 6 0 10 -4
10 -10z m610 -20 c0 -5 -5 -10 -11 -10 -5 0 -7 5 -4 10 3 6 8 10 11 10 2 0 4
-4 4 -10z m48 -78 c2 -7 -7 -12 -22 -12 -19 0 -26 5 -26 20 0 16 4 18 22 11
12 -4 24 -13 26 -19z m226 -237 c19 -14 19 -15 -7 -15 -17 0 -27 5 -27 15 0
19 9 19 34 0z m-396 -32 c-10 -2 -26 -2 -35 0 -10 3 -2 5 17 5 19 0 27 -2 18
-5z m192 -13 c0 -5 -4 -10 -9 -10 -6 0 -13 5 -16 10 -3 6 1 10 9 10 9 0 16 -4
16 -10z m-73 -16 c-3 -3 -12 -4 -19 -1 -8 3 -5 6 6 6 11 1 17 -2 13 -5z m58
-43 c-6 -5 -25 10 -25 20 0 5 6 4 14 -3 8 -7 12 -15 11 -17z m345 -7 c0 -14
-3 -14 -15 -4 -8 7 -15 14 -15 16 0 2 7 4 15 4 8 0 15 -7 15 -16z m-659 -34
c46 -6 88 -16 94 -21 5 -5 19 -9 32 -9 27 0 73 -20 73 -32 0 -4 5 -8 10 -8 12
0 104 -66 143 -102 42 -40 22 -129 -40 -174 -44 -32 -131 -63 -208 -73 -92
-13 -415 -20 -415 -9 0 4 12 8 28 9 27 1 27 1 -4 8 -59 14 -57 10 -51 190 9
222 8 219 66 223 134 9 196 8 272 -2z m-364 -332 c-2 -13 -4 -5 -4 17 -1 22 1
32 4 23 2 -10 2 -28 0 -40z m993 -207 c0 -5 -7 -12 -16 -15 -14 -5 -15 -4 -4
9 14 17 20 19 20 6z"/>
<path d="M2678 5943 c6 -2 18 -2 25 0 6 3 1 5 -13 5 -14 0 -19 -2 -12 -5z"/>
<path d="M2761 5936 c2 -2 18 -6 34 -10 22 -5 26 -4 15 4 -14 9 -59 15 -49 6z"/>
<path d="M2780 5900 c0 -5 5 -10 10 -10 6 0 10 5 10 10 0 6 -4 10 -10 10 -5 0
-10 -4 -10 -10z"/>
<path d="M3010 5825 c0 -8 4 -15 10 -15 5 0 7 7 4 15 -4 8 -8 15 -10 15 -2 0
-4 -7 -4 -15z"/>
<path d="M2970 5800 c0 -5 5 -10 11 -10 5 0 7 5 4 10 -3 6 -8 10 -11 10 -2 0
-4 -4 -4 -10z"/>
<path d="M3060 5776 c0 -2 7 -9 15 -16 13 -11 14 -10 9 4 -5 14 -24 23 -24 12z"/>
<path d="M3102 5705 c0 -16 2 -22 5 -12 2 9 2 23 0 30 -3 6 -5 -1 -5 -18z"/>
<path d="M3125 5670 c3 -5 8 -10 11 -10 2 0 4 5 4 10 0 6 -5 10 -11 10 -5 0
-7 -4 -4 -10z"/>
<path d="M3135 5635 c4 -11 10 -49 12 -85 5 -63 9 -78 17 -69 8 9 -14 153 -25
163 -9 8 -10 6 -4 -9z"/>
<path d="M7910 5530 c0 -38 -16 -45 -69 -30 -23 6 -63 8 -90 4 -44 -6 -50 -9
-53 -33 -3 -29 36 -71 67 -71 16 0 45 -22 45 -34 0 -3 -22 -6 -50 -6 -51 0
-60 -6 -38 -28 9 -9 9 -12 -1 -12 -7 0 -9 -4 -6 -10 3 -5 15 -10 26 -10 36 0
19 -18 -21 -22 -22 -2 -40 0 -40 4 0 9 -62 9 -102 -1 l-28 -6 25 -12 c14 -6
25 -7 25 -2 0 5 12 9 26 9 20 0 24 -3 16 -13 -13 -15 -98 -41 -110 -33 -6 3
-13 -1 -16 -9 -4 -10 -19 -16 -43 -16 -94 0 -101 -1 -96 -21 7 -23 -23 -25
-48 -2 -16 15 -20 15 -34 1 -16 -17 -20 -47 -6 -47 5 0 11 7 15 15 3 8 12 15
21 15 8 0 15 -7 15 -15 0 -21 17 -19 37 5 10 11 23 20 29 20 7 0 14 6 17 13 2
6 8 9 12 5 4 -4 -9 -23 -28 -43 -30 -31 -38 -34 -60 -26 -28 11 -37 6 -37 -21
0 -10 -7 -21 -15 -24 -8 -4 -15 -12 -15 -19 0 -8 -10 -15 -22 -17 l-23 -3 24
-24 24 -24 9 22 c4 13 6 27 2 32 -3 5 -1 9 5 9 19 0 23 -21 7 -45 -9 -13 -18
-42 -22 -64 -4 -22 -11 -38 -16 -35 -5 4 -7 17 -4 30 5 17 2 24 -7 24 -10 0
-14 -13 -14 -42 -1 -24 2 -47 5 -52 8 -13 8 -146 0 -146 -3 0 -9 8 -11 18 -3
11 -5 7 -6 -10 0 -15 -5 -29 -10 -32 -12 -8 -22 19 -10 31 5 5 11 38 14 73 4
41 2 61 -4 55 -5 -6 -11 -21 -14 -35 -3 -16 -5 -11 -6 17 0 23 4 43 10 45 5 2
8 10 4 18 -4 11 -17 14 -50 12 -25 -2 -45 -8 -45 -13 0 -5 -18 -9 -40 -9 -22
0 -40 5 -40 10 0 6 -18 10 -40 10 -45 0 -71 -29 -50 -56 8 -8 10 -28 6 -51
-17 -99 -18 -116 -7 -109 8 5 11 -14 11 -63 0 -39 4 -71 9 -71 7 0 41 -70 41
-85 0 -3 -7 -5 -15 -5 -8 0 -15 -9 -15 -19 0 -43 -30 -31 -44 17 -5 14 -2 27
8 37 8 9 13 22 10 30 -9 22 -22 18 -26 -7 -4 -22 -5 -22 -18 5 -11 23 -12 32
-1 49 11 17 9 24 -10 44 -21 22 -23 35 -24 127 -1 56 2 110 8 121 6 13 6 16
-2 11 -8 -5 -10 2 -5 22 4 15 9 33 13 38 3 6 6 17 8 25 9 66 43 132 43 85 0
-8 4 -15 9 -15 6 0 6 11 0 29 -8 23 -7 38 7 68 10 21 21 40 24 43 10 8 32 51
28 55 -7 8 -89 -125 -113 -182 -59 -147 -62 -425 -4 -550 30 -68 21 -74 -11
-8 -16 33 -33 89 -39 125 -30 181 -30 182 -27 55 4 -112 7 -128 47 -240 63
-177 122 -258 286 -391 71 -57 195 -112 308 -135 122 -25 348 -8 432 33 13 6
25 9 28 6 16 -16 25 -152 25 -387 0 -259 6 -323 35 -343 12 -9 317 -11 340 -2
8 4 22 22 31 42 13 31 14 187 14 1161 0 727 -4 1129 -10 1135 -7 7 -11 -10
-12 -49 -1 -50 -2 -53 -5 -17 -2 23 -9 42 -14 42 -6 0 -8 4 -5 9 3 5 -7 10
-22 12 -26 4 -296 -5 -279 -9 9 -2 -17 -32 -28 -32 -3 0 -10 10 -16 23 -9 21
-9 21 -6 1 3 -12 1 -27 -3 -34 -11 -18 -38 9 -33 31 3 9 0 20 -6 23 -7 5 -11
-4 -11 -24z m155 0 c-3 -5 -10 -10 -16 -10 -5 0 -9 5 -9 10 0 6 7 10 16 10 8
0 12 -4 9 -10z m42 4 c-3 -3 -12 -4 -19 -1 -8 3 -5 6 6 6 11 1 17 -2 13 -5z
m83 -18 c0 -2 -7 -6 -15 -10 -8 -3 -15 -1 -15 4 0 6 7 10 15 10 8 0 15 -2 15
-4z m-351 -35 c14 -4 26 -12 29 -19 5 -17 -55 -16 -65 2 -4 8 -17 16 -28 19
-13 3 -10 5 10 5 17 0 41 -3 54 -7z m-94 -21 c-3 -5 -13 -10 -21 -10 -8 0 -14
5 -14 10 0 6 9 10 21 10 11 0 17 -4 14 -10z m161 -5 c-8 -8 -18 -15 -22 -15
-3 0 -1 7 6 15 7 8 17 15 22 15 5 0 3 -7 -6 -15z m-106 -5 c0 -5 -4 -10 -10
-10 -5 0 -10 5 -10 10 0 6 5 10 10 10 6 0 10 -4 10 -10z m537 -42 c-3 -7 -5
-2 -5 12 0 14 2 19 5 13 2 -7 2 -19 0 -25z m-477 -63 c0 -8 -4 -15 -10 -15 -5
0 -10 7 -10 15 0 8 5 15 10 15 6 0 10 -7 10 -15z m477 -47 c-2 -13 -4 -3 -4
22 0 25 2 35 4 23 2 -13 2 -33 0 -45z m-537 -48 c0 -5 -7 -10 -16 -10 -8 0
-12 5 -9 10 3 6 10 10 16 10 5 0 9 -4 9 -10z m200 -74 c0 -3 -4 -8 -10 -11 -5
-3 -10 -1 -10 4 0 6 5 11 10 11 6 0 10 -2 10 -4z m-267 -67 c126 -20 198 -72
218 -157 5 -20 9 -138 9 -262 1 -223 1 -225 -21 -240 -13 -8 -32 -23 -43 -33
l-21 -19 23 5 c12 3 22 1 22 -3 0 -4 -21 -7 -47 -7 -27 1 -61 -5 -78 -13 -20
-10 -59 -15 -120 -15 -77 1 -100 5 -160 30 -179 76 -273 272 -229 480 6 30 38
90 60 112 7 7 14 16 16 21 1 4 24 23 51 41 46 31 116 55 187 64 19 2 41 5 48
5 7 1 46 -3 85 -9z m-373 -9 c0 -5 -4 -10 -10 -10 -5 0 -10 5 -10 10 0 6 5 10
10 10 6 0 10 -4 10 -10z m627 -82 c-3 -8 -6 -5 -6 6 -1 11 2 17 5 13 3 -3 4
-12 1 -19z m-947 -228 c0 -5 -7 -10 -15 -10 -8 0 -15 5 -15 10 0 6 7 10 15 10
8 0 15 -4 15 -10z m220 -101 c0 -11 -4 -17 -10 -14 -5 3 -10 13 -10 21 0 8 5
14 10 14 6 0 10 -9 10 -21z m-40 -13 c0 -3 -4 -8 -10 -11 -5 -3 -10 -1 -10 4
0 6 5 11 10 11 6 0 10 -2 10 -4z m50 -26 c0 -5 -4 -10 -10 -10 -5 0 -10 5 -10
10 0 6 5 10 10 10 6 0 10 -4 10 -10z m1067 -72 c-2 -13 -4 -3 -4 22 0 25 2 35
4 23 2 -13 2 -33 0 -45z m-1057 28 c0 -9 -9 -14 -20 -13 -20 1 -25 9 -13 20
12 12 33 7 33 -7z m20 -42 c0 -8 -5 -12 -10 -9 -6 4 -8 11 -5 16 9 14 15 11
15 -7z m33 -67 c-7 -11 -23 12 -23 33 1 12 4 11 15 -4 8 -10 12 -23 8 -29z
m1004 -54 c-3 -10 -5 -4 -5 12 0 17 2 24 5 18 2 -7 2 -21 0 -30z m-347 -3 c0
-5 -7 -10 -16 -10 -8 0 -12 5 -9 10 3 6 10 10 16 10 5 0 9 -4 9 -10z m-540
-33 c13 4 13 3 1 -5 -16 -12 -44 -4 -35 9 3 5 -5 9 -18 9 -19 0 -20 2 -8 10
11 7 19 5 30 -8 9 -10 22 -17 30 -15z m-430 -39 c0 -6 -7 -5 -15 2 -8 7 -15
17 -15 22 0 6 7 5 15 -2 8 -7 15 -17 15 -22z m535 -11 c12 -10 14 -16 7 -21
-7 -4 -12 -2 -12 3 0 6 -7 11 -15 11 -8 0 -15 5 -15 10 0 14 13 13 35 -3z
m255 -17 c0 -5 -7 -10 -16 -10 -8 0 -12 5 -9 10 3 6 10 10 16 10 5 0 9 -4 9
-10z m-699 -29 c-9 -6 -11 -16 -7 -27 6 -15 4 -16 -5 -7 -14 14 -5 43 13 43
10 0 9 -3 -1 -9z m-44 -47 c-3 -3 -12 -4 -19 -1 -8 3 -5 6 6 6 11 1 17 -2 13
-5z m1270 -46 c-3 -8 -6 -5 -6 6 -1 11 2 17 5 13 3 -3 4 -12 1 -19z m-1012
-146 c-3 -3 -11 0 -18 7 -9 10 -8 11 6 5 10 -3 15 -9 12 -12z m112 -28 c-3 -3
-12 -4 -19 -1 -8 3 -5 6 6 6 11 1 17 -2 13 -5z"/>
<path d="M6320 5489 c0 -5 5 -7 10 -4 6 3 10 8 10 11 0 2 -4 4 -10 4 -5 0 -10
-5 -10 -11z"/>
<path d="M5398 5275 c-5 -121 -8 -461 -8 -756 l0 -537 24 -15 c61 -41 328 -50
349 -12 5 9 18 24 28 33 18 16 19 39 18 514 0 274 3 514 7 533 3 19 16 40 29
49 99 65 322 57 350 -12 4 -9 10 -258 12 -552 l6 -535 29 -30 29 -30 138 1
c150 1 194 12 199 52 2 12 7 22 12 22 11 0 11 925 1 1055 -5 56 -8 -79 -9
-362 -2 -395 -4 -453 -17 -453 -11 0 -15 11 -15 40 0 23 5 40 11 40 8 0 9 22
3 78 -5 42 -9 106 -9 142 -1 36 -3 124 -5 195 l-4 130 -6 -130 c-4 -92 -7
-109 -8 -57 l-2 72 -40 0 -40 0 0 -40 0 -40 -40 0 -40 0 0 65 0 65 -39 0 c-36
0 -40 3 -44 28 -4 27 -12 -153 -8 -195 1 -12 -3 -24 -9 -28 -6 -4 -10 12 -11
42 0 36 -3 43 -9 28 -5 -11 -9 -77 -9 -147 -1 -71 -5 -128 -10 -128 -10 0 -20
220 -23 507 -2 111 -5 200 -9 198 -3 -2 -15 16 -27 40 -43 88 -160 110 -277
51 -66 -34 -77 -43 -107 -96 l-26 -45 -6 -444 c-4 -245 -8 -447 -11 -449 -3
-3 -6 15 -7 39 l-1 44 -7 -45 c-4 -26 -6 8 -4 80 l3 125 -12 -85 -13 -85 -7
73 c-5 40 -6 80 -2 90 6 22 -35 65 -42 45 -3 -8 -21 -13 -43 -13 -34 0 -39 3
-43 28 -3 19 -4 14 -6 -15 -1 -37 2 -43 19 -43 17 0 20 -7 20 -40 0 -29 -4
-40 -15 -40 -10 0 -15 10 -15 27 0 21 -3 24 -12 15 -7 -7 -15 -12 -20 -12 -14
0 -38 59 -38 95 l0 35 -53 0 -54 0 -3 138 c-1 75 -5 304 -9 507 l-6 370 -7
-220z m972 -565 c0 -5 -4 -10 -10 -10 -5 0 -10 5 -10 10 0 6 5 10 10 10 6 0
10 -4 10 -10z m109 -112 c0 -24 -3 -36 -6 -28 -10 24 -30 40 -52 40 -12 0 -21
6 -21 15 0 11 11 15 40 15 l40 0 -1 -42z m-989 -205 c0 -10 -32 -43 -42 -43
-4 0 -8 11 -8 25 0 20 5 25 25 25 14 0 25 -3 25 -7z m777 -135 c-2 -13 -4 -3
-4 22 0 25 2 35 4 23 2 -13 2 -33 0 -45z m343 -114 c0 -41 -4 -63 -10 -59 -5
3 -10 -1 -10 -9 0 -8 5 -18 10 -21 15 -9 12 -25 -5 -25 -19 0 -20 50 -2 69 10
11 10 13 0 7 -9 -5 -13 0 -13 14 0 12 4 19 8 16 5 -3 9 1 9 9 0 8 -4 12 -9 9
-4 -3 -8 9 -8 25 0 21 5 31 15 31 12 0 15 -14 15 -66z m-348 29 c6 -24 -2
-113 -11 -113 -3 0 -7 29 -8 65 -3 60 9 89 19 48z m-486 -96 c-3 -12 -5 -24
-5 -27 -1 -3 -5 1 -10 9 -7 12 -13 12 -24 3 -7 -7 -17 -9 -20 -5 -14 13 -6 23
18 23 21 0 25 5 26 33 0 29 1 30 9 9 6 -13 8 -33 6 -45z m-309 -23 c-3 -3 -12
-4 -19 -1 -8 3 -5 6 6 6 11 1 17 -2 13 -5z m821 -15 c-18 -12 -48 -11 -48 0 0
5 14 9 31 9 20 -1 26 -4 17 -9z m-513 -9 c3 -5 1 -10 -4 -10 -6 0 -11 5 -11
10 0 6 2 10 4 10 3 0 8 -4 11 -10z m703 3 c-32 -2 -84 -2 -115 0 -32 2 -6 3
57 3 63 0 89 -1 58 -3z m-1015 -10 c-7 -2 -21 -2 -30 0 -10 3 -4 5 12 5 17 0
24 -2 18 -5z m270 0 c-7 -2 -19 -2 -25 0 -7 3 -2 5 12 5 14 0 19 -2 13 -5z"/>
<path d="M3082 5318 c-15 -15 -16 -28 -2 -28 6 0 10 7 10 15 0 9 6 12 15 9 8
-4 15 -1 15 5 0 15 -23 14 -38 -1z"/>
<path d="M3007 5306 c-4 -10 -5 -21 -2 -24 9 -9 17 6 13 25 -3 17 -4 17 -11
-1z"/>
<path d="M7055 5290 c-3 -5 -1 -10 4 -10 6 0 11 5 11 10 0 6 -2 10 -4 10 -3 0
-8 -4 -11 -10z"/>
<path d="M3037 5271 c4 -3 10 -10 14 -14 3 -4 11 -2 18 6 9 12 7 15 -14 15
-14 0 -22 -3 -18 -7z"/>
<path d="M6591 5244 c0 -11 3 -14 6 -6 3 7 2 16 -1 19 -3 4 -6 -2 -5 -13z"/>
<path d="M3025 5240 c3 -5 8 -10 11 -10 2 0 4 5 4 10 0 6 -5 10 -11 10 -5 0
-7 -4 -4 -10z"/>
<path d="M7548 5243 c6 -2 18 -2 25 0 6 3 1 5 -13 5 -14 0 -19 -2 -12 -5z"/>
<path d="M7370 5231 c0 -5 7 -14 15 -21 12 -10 18 -10 30 0 23 19 18 30 -15
30 -16 0 -30 -4 -30 -9z"/>
<path d="M7465 5230 c-3 -5 3 -10 15 -10 12 0 18 5 15 10 -3 6 -10 10 -15 10
-5 0 -12 -4 -15 -10z"/>
<path d="M2967 5212 c-22 -24 -21 -31 3 -25 11 3 17 9 14 14 -3 5 4 9 15 9 12
0 21 5 21 10 0 17 -36 11 -53 -8z"/>
<path d="M4270 5205 c-154 -35 -268 -142 -293 -273 -6 -32 -4 -30 39 27 25 34
53 61 62 61 10 0 38 11 63 24 56 30 191 50 273 41 61 -8 186 -58 186 -75 0 -6
5 -10 11 -10 22 0 88 -79 97 -117 27 -106 21 -223 -15 -323 -28 -75 -99 -152
-171 -185 -35 -16 -59 -31 -53 -33 6 -2 8 -9 5 -14 -4 -6 -3 -8 3 -5 11 7 58
-42 48 -51 -3 -3 -15 -1 -25 6 -16 10 -20 10 -20 -1 0 -7 5 -18 12 -25 9 -9 8
-21 -2 -51 -10 -31 -19 -41 -41 -46 -16 -4 -33 -4 -39 0 -5 3 -10 0 -10 -7 0
-7 -16 4 -35 24 -21 23 -32 43 -29 53 5 11 -1 15 -20 15 -14 0 -26 5 -26 10 0
6 7 10 15 10 8 0 15 5 15 10 0 6 -4 10 -9 10 -6 0 -13 -4 -16 -10 -10 -16 -22
-12 -28 9 -4 16 -12 18 -56 13 -42 -4 -51 -2 -51 11 0 9 11 17 28 20 l27 4
-28 2 c-16 0 -25 5 -22 11 7 12 -39 24 -61 16 -9 -3 -14 -13 -11 -20 4 -11 -2
-14 -26 -12 -18 2 -22 1 -9 -1 20 -4 22 -10 22 -59 l0 -54 -40 0 c-22 0 -40 5
-40 10 0 17 -24 10 -52 -15 -34 -30 -34 -31 -2 -39 15 -4 24 -9 22 -12 -8 -8
-68 18 -62 27 3 5 -3 12 -13 15 -35 11 -63 27 -63 36 0 5 10 9 23 8 47 -4 67
0 67 15 0 22 -69 20 -85 -2 -11 -15 -15 -15 -29 -4 -9 8 -16 21 -15 30 3 31
-1 42 -12 36 -6 -4 -8 -13 -5 -21 7 -18 -13 -29 -26 -16 -8 8 -7 16 2 27 10
12 10 15 -4 15 -9 0 -16 -6 -16 -12 0 -40 -87 131 -111 218 -37 139 -35 347 5
447 19 46 29 96 16 77 -29 -42 -60 -176 -66 -283 -7 -120 12 -247 56 -376 11
-33 20 -70 20 -81 0 -22 46 -116 67 -138 7 -7 13 -18 13 -24 0 -14 141 -148
156 -148 6 0 19 -9 29 -20 10 -11 22 -20 27 -20 5 0 33 -11 61 -25 96 -45 211
-65 349 -59 68 2 135 5 149 4 38 0 152 37 180 59 13 10 33 21 44 25 33 10 152
127 200 196 175 254 226 392 224 608 0 59 -6 132 -12 163 -11 52 -12 45 -13
-105 0 -170 -19 -294 -43 -288 -7 1 -10 -2 -6 -8 9 -14 -16 -91 -32 -97 -7 -3
-10 -9 -7 -14 6 -11 -117 -189 -131 -189 -6 0 -15 -8 -22 -19 -6 -10 -24 -28
-40 -38 -27 -20 -29 -20 -57 -2 l-30 18 27 10 c27 11 37 31 15 31 -6 0 -9 3
-5 6 3 3 15 3 27 -1 20 -6 20 -8 5 -31 -17 -26 -10 -31 18 -10 9 7 16 23 15
34 -2 11 1 20 7 19 5 -1 9 -5 8 -9 -4 -12 10 -9 30 6 24 18 22 39 -3 31 -11
-3 -20 -2 -20 3 0 6 5 12 12 14 21 7 -3 28 -33 28 -38 0 -82 -22 -107 -55 -23
-29 -32 -32 -32 -10 0 11 -11 15 -40 15 -35 0 -40 3 -40 23 -1 32 -23 57 -51
57 -24 -1 -24 -1 -4 -16 19 -15 17 -16 -25 -10 -50 8 -70 20 -46 29 8 3 18 2
21 -3 4 -6 11 -10 18 -10 8 0 8 3 -1 12 -9 9 -2 17 28 35 22 13 40 30 41 36 1
27 18 -31 18 -65 1 -37 2 -38 40 -38 22 0 42 6 45 13 5 10 7 10 12 0 3 -7 23
-13 46 -13 27 0 38 4 35 13 -2 7 -26 12 -63 13 -82 2 -82 2 -89 25 -4 13 0 28
12 42 18 22 18 22 -3 4 -19 -16 -34 -14 -34 4 0 4 11 20 23 36 13 15 32 49 42
75 10 26 22 45 27 42 4 -3 7 -2 6 3 -1 4 4 43 11 85 40 226 -34 435 -178 507
-95 49 -196 61 -301 36z m517 -943 c-10 -10 -14 -22 -10 -26 4 -4 -1 -4 -10 0
-17 6 -17 8 -1 25 9 11 22 19 27 19 6 0 3 -8 -6 -18z m-227 -12 c0 -5 -4 -10
-10 -10 -5 0 -10 5 -10 10 0 6 5 10 10 10 6 0 10 -4 10 -10z m-743 -25 c9 -25
-2 -27 -22 -5 -17 18 -17 20 -1 20 9 0 19 -7 23 -15z m849 0 c-11 -8 -22 -12
-25 -9 -6 6 19 24 34 24 6 -1 1 -7 -9 -15z m81 -11 c-3 -3 -12 -4 -19 -1 -8 3
-5 6 6 6 11 1 17 -2 13 -5z m-567 -41 c0 -7 -4 -13 -10 -13 -5 0 -10 12 -10
28 0 21 2 24 10 12 5 -8 10 -21 10 -27z m-297 -2 c-2 -6 4 -11 13 -11 8 0 12
-5 9 -10 -7 -12 -62 17 -69 36 -3 8 3 10 22 4 15 -4 26 -12 25 -19z m177 -20
c0 -19 -31 -33 -65 -29 -33 4 -34 3 -18 -14 9 -10 22 -18 29 -18 7 0 15 -4 18
-9 10 -16 -43 1 -60 20 -9 10 -27 19 -38 20 -12 0 8 8 44 18 79 22 90 24 90
12z m650 0 c0 -12 -20 -25 -27 -18 -7 7 6 27 18 27 5 0 9 -4 9 -9z m-63 -23
c-3 -8 -6 -5 -6 6 -1 11 2 17 5 13 3 -3 4 -12 1 -19z m127 -5 c-30 -24 -64
-31 -64 -12 0 5 4 8 8 5 4 -2 14 0 22 5 13 8 13 10 1 18 -10 6 -2 9 24 8 l37
-1 -28 -23z m-621 -14 c7 0 2 -4 -10 -9 -11 -5 -31 -6 -44 -3 -22 6 -22 7 -3
14 10 4 25 6 32 3 8 -2 19 -4 25 -5z m467 1 c0 -5 -13 -10 -30 -10 -16 0 -30
5 -30 10 0 6 14 10 30 10 17 0 30 -4 30 -10z m80 -20 c0 -10 -130 -53 -138
-45 -10 9 6 17 47 22 22 3 38 9 36 14 -3 4 3 10 12 12 31 8 43 7 43 -3z m-300
-19 c0 -15 -5 -18 -21 -14 -21 6 -21 7 -4 20 24 17 25 17 25 -6z m170 9 c-8
-5 -19 -10 -25 -10 -5 0 -3 5 5 10 8 5 20 10 25 10 6 0 3 -5 -5 -10z m-486
-14 c-3 -9 -12 -12 -22 -9 -15 6 -9 11 25 22 1 1 0 -5 -3 -13z m183 8 c-3 -3
-12 -4 -19 -1 -8 3 -5 6 6 6 11 1 17 -2 13 -5z m228 -4 c3 -5 1 -10 -4 -10 -6
0 -11 5 -11 10 0 6 2 10 4 10 3 0 8 -4 11 -10z m-375 -20 c13 -8 13 -10 -2
-10 -9 0 -20 5 -23 10 -8 13 5 13 25 0z m423 -11 c-13 -13 -175 -28 -213 -20
-14 3 25 11 85 17 61 6 117 12 125 12 10 2 11 -1 3 -9z m-308 -8 c26 -6 31 -9
15 -9 -14 -1 -43 3 -65 7 -26 6 -31 9 -15 9 14 1 43 -3 65 -7z"/>
<path d="M6597 5188 c8 -44 13 -48 13 -10 0 17 -4 34 -10 37 -6 4 -7 -6 -3
-27z"/>
<path d="M7001 5154 c0 -11 3 -14 6 -6 3 7 2 16 -1 19 -3 4 -6 -2 -5 -13z"/>
<path d="M3657 5093 c-4 -3 -7 -11 -7 -17 0 -6 5 -5 12 2 6 6 9 14 7 17 -3 3
-9 2 -12 -2z"/>
<path d="M7011 5074 c0 -11 3 -14 6 -6 3 7 2 16 -1 19 -3 4 -6 -2 -5 -13z"/>
<path d="M5090 5068 c0 -9 5 -20 10 -23 13 -8 13 5 0 25 -8 13 -10 13 -10 -2z"/>
<path d="M3003 5046 c3 -7 0 -20 -6 -27 -10 -11 -9 -11 5 0 10 7 26 10 39 6
32 -10 118 -74 130 -96 5 -11 17 -19 25 -19 22 0 -16 40 -76 82 -25 18 -47 34
-50 37 -9 11 -50 31 -61 31 -6 0 -9 -6 -6 -14z"/>
<path d="M2898 5043 c7 -3 16 -2 19 1 4 3 -2 6 -13 5 -11 0 -14 -3 -6 -6z"/>
<path d="M7204 4989 c-1 -19 3 -29 12 -29 17 0 18 34 1 48 -9 8 -13 4 -13 -19z"/>
<path d="M6322 4905 c0 -16 2 -22 5 -12 2 9 2 23 0 30 -3 6 -5 -1 -5 -18z"/>
<path d="M3951 4763 c1 -21 5 -51 9 -68 6 -22 8 -12 7 37 -1 38 -5 68 -9 68
-5 0 -7 -17 -7 -37z"/>
<path d="M6270 4760 c0 -22 5 -40 10 -40 6 0 10 18 10 40 0 22 -4 40 -10 40
-5 0 -10 -18 -10 -40z"/>
<path d="M6911 4784 c0 -11 3 -14 6 -6 3 7 2 16 -1 19 -3 4 -6 -2 -5 -13z"/>
<path d="M3970 4624 c0 -29 11 -64 20 -64 8 0 -4 67 -14 77 -3 4 -6 -2 -6 -13z"/>
<path d="M6930 4570 c0 -5 5 -10 10 -10 6 0 10 5 10 10 0 6 -4 10 -10 10 -5 0
-10 -4 -10 -10z"/>
<path d="M5051 4514 c0 -11 3 -14 6 -6 3 7 2 16 -1 19 -3 4 -6 -2 -5 -13z"/>
<path d="M3972 4500 c0 -14 2 -19 5 -12 2 6 2 18 0 25 -3 6 -5 1 -5 -13z"/>
<path d="M4021 4504 c0 -11 3 -14 6 -6 3 7 2 16 -1 19 -3 4 -6 -2 -5 -13z"/>
<path d="M3660 4465 c-8 -9 -8 -15 -2 -15 12 0 26 19 19 26 -2 2 -10 -2 -17
-11z"/>
<path d="M6955 4469 c-4 -6 -5 -12 -2 -15 2 -3 7 2 10 11 7 17 1 20 -8 4z"/>
<path d="M4051 4458 c-1 -13 -10 -18 -28 -19 -25 0 -23 -2 15 -16 25 -9 42
-21 42 -30 0 -9 3 -13 7 -9 14 13 11 36 -6 49 -10 6 -20 19 -24 27 -4 12 -6
11 -6 -2z"/>
<path d="M4705 4451 c-3 -5 -1 -12 5 -16 5 -3 10 1 10 9 0 18 -6 21 -15 7z"/>
<path d="M4947 4421 c-21 -36 -22 -61 -2 -61 8 0 15 -4 15 -10 0 -20 16 -9 34
24 11 21 15 39 10 48 -6 9 -10 4 -14 -17 -7 -41 -25 -33 -24 10 1 19 1 35 0
35 -1 0 -9 -13 -19 -29z"/>
<path d="M3687 4415 c-3 -16 0 -24 7 -22 14 4 21 47 8 47 -5 0 -12 -11 -15
-25z"/>
<path d="M4149 4386 c6 -8 22 -16 34 -20 21 -5 21 -4 -3 14 -29 23 -48 26 -31
6z"/>
<path d="M3751 4364 c0 -11 3 -14 6 -6 3 7 2 16 -1 19 -3 4 -6 -2 -5 -13z"/>
<path d="M3710 4360 c0 -5 5 -10 10 -10 6 0 10 5 10 10 0 6 -4 10 -10 10 -5 0
-10 -4 -10 -10z"/>
<path d="M4229 4338 c-12 -8 -11 -9 2 -5 9 3 31 2 50 -3 19 -4 25 -8 14 -9
-17 -1 -17 -3 -5 -11 23 -15 30 -12 30 10 0 11 -6 21 -12 21 -7 1 -25 3 -39 4
-14 2 -32 -1 -40 -7z"/>
<path d="M4374 4331 c18 -7 66 -3 66 5 0 2 -19 4 -42 3 -31 0 -37 -3 -24 -8z"/>
<path d="M3820 4311 c0 -6 5 -13 10 -16 6 -3 10 1 10 9 0 9 -4 16 -10 16 -5 0
-10 -4 -10 -9z"/>
<path d="M4945 4310 c3 -5 8 -10 11 -10 2 0 4 5 4 10 0 6 -5 10 -11 10 -5 0
-7 -4 -4 -10z"/>
<path d="M4400 4254 c0 -10 7 -14 22 -12 32 5 35 28 4 28 -17 0 -26 -5 -26
-16z"/>
<path d="M4576 3813 c-14 -15 -3 -20 47 -21 28 -1 167 -31 309 -66 521 -132
781 -176 1039 -177 141 0 215 10 269 36 14 7 30 10 37 8 6 -2 14 1 18 6 8 14
-7 13 -65 0 -126 -29 -391 -16 -640 31 -190 36 -363 72 -465 95 -55 13 -115
26 -132 30 -36 7 -43 21 -15 28 14 4 14 5 -3 6 -11 0 -26 -3 -33 -8 -17 -10
-88 2 -85 16 1 6 -45 11 -129 12 -72 1 -134 4 -138 6 -4 2 -10 2 -14 -2z"/>
<path d="M5038 3813 c23 -2 61 -2 85 0 23 2 4 4 -43 4 -47 0 -66 -2 -42 -4z"/>
<path d="M5243 3813 c9 -2 23 -2 30 0 6 3 -1 5 -18 5 -16 0 -22 -2 -12 -5z"/>
<path d="M4880 3800 c0 -12 17 -12 45 0 17 7 15 9 -12 9 -18 1 -33 -3 -33 -9z"/>
<path d="M5027 3770 c11 -12 79 -17 90 -6 4 3 -10 6 -30 6 -19 0 -44 3 -54 6
-14 6 -15 4 -6 -6z"/>
<path d="M4570 3744 c0 -16 5 -45 11 -64 6 -19 13 -48 16 -65 7 -39 71 -168
89 -178 8 -4 14 -14 14 -21 0 -19 117 -128 180 -168 251 -161 597 -201 900
-107 138 43 326 149 391 220 15 16 32 29 38 29 6 0 11 4 11 9 0 5 11 19 25 32
13 13 25 31 25 40 0 8 8 24 18 35 35 38 102 137 96 143 -3 3 -14 -5 -25 -19
-27 -36 -34 -43 -60 -64 -13 -11 -46 -39 -74 -63 -27 -24 -53 -43 -58 -43 -4
0 -16 -8 -27 -18 -11 -10 -47 -33 -81 -51 -47 -25 -69 -32 -93 -27 l-31 6 25
-16 c23 -14 23 -15 3 -11 -12 3 -21 2 -20 -2 3 -8 -14 -10 -30 -4 -7 3 -21 2
-30 -2 -16 -7 -15 -9 7 -16 l25 -8 -25 2 c-14 1 -31 -2 -37 -6 -8 -5 -13 -3
-13 3 0 15 -52 9 -57 -7 -3 -7 9 -13 29 -16 29 -3 28 -4 -9 -5 -40 -2 -43 0
-43 23 0 20 5 25 24 25 13 0 29 7 37 16 11 13 8 15 -22 13 -74 -5 -119 1 -119
16 0 11 -11 15 -40 15 -29 0 -40 -4 -40 -15 0 -11 -11 -15 -40 -15 -36 0 -40
3 -40 25 0 30 -11 32 -33 7 -11 -12 -17 -36 -17 -65 0 -35 -4 -47 -15 -47 -11
0 -15 11 -15 40 0 47 -20 54 -54 17 -30 -33 -113 -45 -132 -20 -13 16 -15 17
-27 2 -6 -9 -22 -19 -34 -23 -23 -7 -103 12 -103 24 0 4 -11 5 -23 3 -14 -3
-31 2 -40 12 -9 9 -22 15 -29 13 -12 -2 -67 28 -78 43 -3 4 -14 9 -25 11 -15
2 -19 -2 -17 -16 3 -17 2 -18 -13 -6 -11 9 -13 15 -4 20 8 6 8 10 -2 16 -7 4
-14 3 -17 -4 -6 -20 -75 41 -137 122 -31 41 -71 108 -89 151 -40 90 -46 98
-46 59z m1640 -309 c-7 -8 -18 -15 -24 -15 -6 0 -2 7 8 15 25 19 32 19 16 0z
m-1285 -85 c3 -5 2 -10 -4 -10 -5 0 -13 5 -16 10 -3 6 -2 10 4 10 5 0 13 -4
16 -10z m755 -25 c0 -11 -11 -15 -40 -15 -29 0 -40 4 -40 15 0 11 11 15 40 15
29 0 40 -4 40 -15z m-426 -40 c3 -9 0 -15 -9 -15 -8 0 -15 7 -15 15 0 8 4 15
9 15 5 0 11 -7 15 -15z m86 -15 c-14 -4 -32 -8 -40 -9 -13 -1 -13 0 0 9 8 5
26 9 40 9 l25 -1 -25 -8z m84 4 c26 -10 18 -24 -14 -24 -29 0 -38 9 -23 23 8
9 17 9 37 1z m256 -4 c0 -5 -4 -10 -10 -10 -5 0 -10 5 -10 10 0 6 5 10 10 10
6 0 10 -4 10 -10z m-102 -15 c-2 -1 -16 -5 -33 -9 l-30 -6 25 14 c14 8 28 12
33 9 5 -3 7 -6 5 -8z m149 9 c-3 -3 -12 -4 -19 -1 -8 3 -5 6 6 6 11 1 17 -2
13 -5z m-100 -10 c-3 -3 -12 -4 -19 -1 -8 3 -5 6 6 6 11 1 17 -2 13 -5z"/>
<path d="M5160 3740 c0 -5 7 -10 15 -10 8 0 15 5 15 10 0 6 -7 10 -15 10 -8 0
-15 -4 -15 -10z"/>
<path d="M4958 3683 c6 -2 18 -2 25 0 6 3 1 5 -13 5 -14 0 -19 -2 -12 -5z"/>
<path d="M5125 3642 c13 -14 88 -33 145 -38 25 -1 36 -1 25 2 -25 6 -133 34
-160 41 -14 4 -17 2 -10 -5z"/>
<path d="M5334 3586 c11 -9 37 -16 57 -16 21 0 44 -3 53 -6 9 -3 16 -2 16 4 0
5 -17 12 -37 15 -21 3 -54 8 -73 12 -33 6 -34 6 -16 -9z"/>
<path d="M5476 3561 c12 -13 98 -32 164 -35 25 -1 79 -6 121 -10 52 -6 79 -5
83 3 5 7 -9 10 -41 10 -42 -1 -196 18 -303 37 -26 5 -32 4 -24 -5z"/>
<path d="M6210 3540 l-25 -8 28 -1 c15 -1 27 4 27 9 0 6 -1 10 -2 9 -2 -1 -14
-5 -28 -9z"/>
<path d="M5873 3513 c9 -2 25 -2 35 0 9 3 1 5 -18 5 -19 0 -27 -2 -17 -5z"/>
<path d="M4828 3433 c7 -3 16 -2 19 1 4 3 -2 6 -13 5 -11 0 -14 -3 -6 -6z"/>
<path d="M6060 3436 c0 -2 7 -7 16 -10 8 -3 12 -2 9 4 -6 10 -25 14 -25 6z"/>
<path d="M4960 3390 c0 -5 7 -10 16 -10 8 0 12 5 9 10 -3 6 -10 10 -16 10 -5
0 -9 -4 -9 -10z"/>
<path d="M5263 3379 c-16 -16 10 -42 35 -36 15 4 15 5 0 6 -9 0 -18 10 -20 22
-2 16 -6 18 -15 8z"/>
<path d="M5893 3353 c9 -2 23 -2 30 0 6 3 -1 5 -18 5 -16 0 -22 -2 -12 -5z"/>
<path d="M5170 3320 c0 -5 7 -10 15 -10 8 0 15 5 15 10 0 6 -7 10 -15 10 -8 0
-15 -4 -15 -10z"/>
</g>
</svg>
